<?xml version="1.0" encoding="UTF-8" standalone="no"?>
<!-- Created with Inkscape (http://www.inkscape.org/) -->

<svg
   xmlns:dc="http://purl.org/dc/elements/1.1/"
   xmlns:cc="http://creativecommons.org/ns#"
   xmlns:rdf="http://www.w3.org/1999/02/22-rdf-syntax-ns#"
   xmlns:svg="http://www.w3.org/2000/svg"
   xmlns="http://www.w3.org/2000/svg"
   xmlns:sodipodi="http://sodipodi.sourceforge.net/DTD/sodipodi-0.dtd"
   xmlns:inkscape="http://www.inkscape.org/namespaces/inkscape"
   width="63.867191mm"
   height="64.000298mm"
   viewBox="0 0 63.867189 64.000298"
   version="1.1"
   id="svg8"
   inkscape:version="0.92.4 (5da689c313, 2019-01-14)"
   sodipodi:docname="Gear60_18T_5d.svg">
  <defs
     id="defs2">
    <inkscape:perspective
       sodipodi:type="inkscape:persp3d"
       inkscape:vp_x="0 : 148.5 : 1"
       inkscape:vp_y="0 : 1000 : 0"
       inkscape:vp_z="210.00001 : 148.5 : 1"
       inkscape:persp3d-origin="105 : 99 : 1"
       id="perspective39699" />
  </defs>
  <sodipodi:namedview
     id="base"
     pagecolor="#ffffff"
     bordercolor="#666666"
     borderopacity="1.0"
     inkscape:pageopacity="0.0"
     inkscape:pageshadow="2"
     inkscape:zoom="2.14"
     inkscape:cx="151.7336"
     inkscape:cy="122.69623"
     inkscape:document-units="mm"
     inkscape:current-layer="layer1"
     showgrid="true"
     inkscape:window-width="1920"
     inkscape:window-height="991"
     inkscape:window-x="0"
     inkscape:window-y="30"
     inkscape:window-maximized="1"
     gridtolerance="1"
     objecttolerance="1"
     guidetolerance="1"
     fit-margin-top="0"
     fit-margin-left="0"
     fit-margin-right="0"
     fit-margin-bottom="0">
    <inkscape:grid
       type="xygrid"
       id="grid815"
       units="mm"
       spacingx="2"
       spacingy="2"
       originx="31.933573"
       originy="32.000276" />
  </sodipodi:namedview>
  <metadata
     id="metadata5">
    <rdf:RDF>
      <cc:Work
         rdf:about="">
        <dc:format>image/svg+xml</dc:format>
        <dc:type
           rdf:resource="http://purl.org/dc/dcmitype/StillImage" />
        <dc:title></dc:title>
      </cc:Work>
    </rdf:RDF>
  </metadata>
  <g
     inkscape:label="レイヤー 1"
     inkscape:groupmode="layer"
     id="layer1"
     transform="translate(55.214362,-153.02494)">
    <circle
       style="opacity:1;fill:none;fill-opacity:1;stroke:#000000;stroke-width:1.49999988;stroke-miterlimit:4;stroke-dasharray:none;stroke-opacity:1"
       id="circle1014-3"
       cx="-23.295868"
       cy="185.0076"
       r="1.75" />
    <path
       inkscape:connector-curvature="0"
       style="opacity:1;fill:none;fill-opacity:1;stroke:#000000;stroke-width:1.5;stroke-linecap:round;stroke-miterlimit:4;stroke-dasharray:none;stroke-dashoffset:0;stroke-opacity:1"
       d="m -23.280789,153.77506 a 31.250001,31.250001 0 0 0 -3.391007,0.22117 c -0.247043,1.48358 -0.496261,2.90966 -0.75551,4.11655 a 27.250001,27.250001 0 0 0 -3.480924,0.76739 c -0.593809,-1.02894 -1.245386,-2.27072 -1.913062,-3.57394 a 31.250001,31.250001 0 0 0 -4.364074,1.7477 c 0.283872,1.49564 0.543309,2.93276 0.715201,4.16098 a 27.250001,27.250001 0 0 0 -2.940389,1.88568 c -0.917128,-0.76446 -1.966218,-1.71614 -3.056144,-2.72542 a 31.250001,31.250001 0 0 0 -3.47834,3.18999 c 0.776328,1.29842 1.505762,2.54639 2.080493,3.62717 a 27.250001,27.250001 0 0 0 -2.073259,2.71766 c -1.108568,-0.39848 -2.405903,-0.92816 -3.765661,-1.5012 a 31.250001,31.250001 0 0 0 -2.228288,4.17339 c 1.190966,0.96828 2.31402,1.90139 3.225643,2.72593 a 27.250001,27.250001 0 0 0 -0.994772,3.18017 c -1.181931,0.004 -2.595874,-0.0529 -4.089672,-0.13178 a 31.250001,31.250001 0 0 0 -0.641305,4.69842 c 1.438259,0.5019 2.799416,0.99366 3.926893,1.45521 a 27.250001,27.250001 0 0 0 -0.02585,0.5147 27.250001,27.250001 0 0 0 0.173633,2.79569 c -1.104136,0.40249 -2.446629,0.82577 -3.872114,1.25574 a 31.250001,31.250001 0 0 0 0.94723,4.64003 c 1.535088,-0.0155 2.99475,-0.0143 4.222996,0.0377 a 27.250001,27.250001 0 0 0 1.255221,3.10059 c -0.909709,0.75836 -2.035848,1.61632 -3.23391,2.50734 a 31.250001,31.250001 0 0 0 2.504755,4.00751 c 1.411095,-0.5248 2.76447,-1.01323 3.927926,-1.38183 a 27.250001,27.250001 0 0 0 2.322856,2.53214 c -0.596813,1.02093 -1.357361,2.20373 -2.169894,3.43752 a 31.250001,31.250001 0 0 0 3.67006,2.94762 c 1.162846,-0.98721 2.285978,-1.92364 3.270602,-2.68097 a 27.250001,27.250001 0 0 0 3.096452,1.64744 c -0.21414,1.17625 -0.525036,2.55739 -0.864547,3.99873 a 31.250001,31.250001 0 0 0 4.471045,1.44487 c 0.738432,-1.29883 1.459336,-2.54405 2.115116,-3.58325 a 27.250001,27.250001 0 0 0 3.54552,0.45011 c 0.203304,1.17429 0.387064,2.56963 0.564823,4.02818 a 31.250001,31.250001 0 0 0 1.302257,0.0651 31.250001,31.250001 0 0 0 3.393591,-0.22221 c 0.247062,-1.48361 0.496237,-2.90943 0.75551,-4.11603 a 27.250001,27.250001 0 0 0 3.479374,-0.7674 c 0.593834,1.02872 1.245304,2.2706 1.913061,3.57395 a 31.250001,31.250001 0 0 0 4.3645918,-1.7477 c -0.2839667,-1.4962 -0.5434232,-2.93365 -0.7152018,-4.16202 a 27.250001,27.250001 0 0 0 2.938322,-1.88412 c 0.9172363,0.76439 1.9668894,1.71581 3.0571775,2.72541 a 31.250001,31.250001 0 0 0 3.47834055,-3.1905 C -1.3925457,205.1857 -2.1224453,203.93764 -2.6970327,202.85679 a 27.250001,27.250001 0 0 0 2.07274152,-2.7156 c 1.10836101,0.39832 2.40588428,0.92765 3.76566158,1.50068 a 31.250001,31.250001 0 0 0 2.2288048,-4.1739 c -1.1910589,-0.96838 -2.3142205,-1.90143 -3.2256431,-2.72594 a 27.250001,27.250001 0 0 0 0.9942547,-3.17861 c 1.1817201,-0.004 2.5957937,0.0529 4.0896735,0.13177 a 31.250001,31.250001 0 0 0 0.641821,-4.69894 C 6.4318396,186.49431 5.070733,186.0026 3.9433884,185.54108 a 27.250001,27.250001 0 0 0 0.02585,-0.51625 27.250001,27.250001 0 0 0 -0.1731169,-2.79311 c 1.1038575,-0.40257 2.4462475,-0.8258 3.8715976,-1.25574 A 31.250001,31.250001 0 0 0 6.721008,176.33544 c -1.5348823,0.0155 -2.99448,0.0147 -4.2224817,-0.0372 a 27.250001,27.250001 0 0 0 -1.2547039,-3.09955 c 0.9097547,-0.75854 2.0355597,-1.61714 3.2339105,-2.50838 a 31.250001,31.250001 0 0 0 -2.5047664,-4.0075 c -1.41101948,0.52476 -2.76403301,1.01332 -3.9274088,1.38182 a 27.250001,27.250001 0 0 0 -2.3228557,-2.53214 c 0.5968455,-1.02102 1.357254,-2.20408 2.1698934,-3.43803 a 31.250001,31.250001 0 0 0 -3.6695435,-2.94763 c -1.1626749,0.98708 -2.2860325,1.92321 -3.2706013,2.68046 a 27.250001,27.250001 0 0 0 -3.0969686,-1.64796 c 0.214242,-1.17639 0.525523,-2.55783 0.865063,-3.99924 a 31.250001,31.250001 0 0 0 -4.471044,-1.44488 c -0.738328,1.29867 -1.459438,2.54399 -2.115117,3.58325 a 27.250001,27.250001 0 0 0 -3.546553,-0.4501 c -0.203204,-1.17432 -0.386578,-2.56978 -0.564307,-4.02818 a 31.250001,31.250001 0 0 0 -1.304313,-0.0651 z"
       id="path822" />
    <circle
       r="0.45000002"
       cy="188.80943"
       cx="-16.776762"
       id="circle925-9"
       style="opacity:1;fill:none;fill-opacity:1;stroke:#000000;stroke-width:1.5;stroke-miterlimit:4;stroke-dasharray:none;stroke-opacity:1" />
    <circle
       style="opacity:1;fill:none;fill-opacity:1;stroke:#000000;stroke-width:1.5;stroke-miterlimit:4;stroke-dasharray:none;stroke-opacity:1"
       id="circle1085"
       cx="-23.267708"
       cy="177.58937"
       r="0.45000002" />
    <circle
       r="0.45000002"
       cy="188.75786"
       cx="-29.758986"
       id="circle1087"
       style="opacity:1;fill:none;fill-opacity:1;stroke:#000000;stroke-width:1.5;stroke-miterlimit:4;stroke-dasharray:none;stroke-opacity:1" />
    <g
       transform="translate(63.189228,-81.839783)"
       id="g935">
      <g
         id="g858">
        <path
           style="fill:none;stroke:#000000;stroke-width:1.28533447;stroke-linecap:butt;stroke-linejoin:miter;stroke-miterlimit:4;stroke-dasharray:none;stroke-opacity:1"
           d="m -86.703887,247.18599 c 3.45996,0.0299 6.755896,0.98712 5.356879,3.50714 -1.399017,2.52001 -4.000819,5.53673 -5.474471,5.53515 -1.473652,-0.002 -3.635275,-2.82243 -5.285504,-5.51778 -1.650229,-2.69535 1.943136,-3.55445 5.403096,-3.52454 z"
           id="path938"
           inkscape:connector-curvature="0"
           sodipodi:nodetypes="czzzzc" />
        <path
           sodipodi:nodetypes="ccccc"
           inkscape:connector-curvature="0"
           id="path856-3"
           d="m -74.123968,251.64074 -5.312505,7.17881 -1.999584,-1.38546 5.31097,-7.12206 z"
           style="fill:none;stroke:#000000;stroke-width:1.28533447;stroke-linecap:butt;stroke-linejoin:miter;stroke-miterlimit:4;stroke-dasharray:none;stroke-opacity:1" />
      </g>
      <g
         transform="rotate(72,-85.869483,267.39724)"
         id="g864">
        <path
           sodipodi:nodetypes="czzzzc"
           inkscape:connector-curvature="0"
           id="path860"
           d="m -86.703887,247.18599 c 3.45996,0.0299 6.755896,0.98712 5.356879,3.50714 -1.399017,2.52001 -4.000819,5.53673 -5.474471,5.53515 -1.473652,-0.002 -3.635275,-2.82243 -5.285504,-5.51778 -1.650229,-2.69535 1.943136,-3.55445 5.403096,-3.52454 z"
           style="fill:none;stroke:#000000;stroke-width:1.28533447;stroke-linecap:butt;stroke-linejoin:miter;stroke-miterlimit:4;stroke-dasharray:none;stroke-opacity:1" />
        <path
           style="fill:none;stroke:#000000;stroke-width:1.28533447;stroke-linecap:butt;stroke-linejoin:miter;stroke-miterlimit:4;stroke-dasharray:none;stroke-opacity:1"
           d="m -74.123968,251.64074 -5.312505,7.17881 -1.999584,-1.38546 5.31097,-7.12206 z"
           id="path862"
           inkscape:connector-curvature="0"
           sodipodi:nodetypes="ccccc" />
      </g>
      <g
         id="g879"
         transform="rotate(144,-86.692714,266.70519)">
        <path
           style="fill:none;stroke:#000000;stroke-width:1.28533447;stroke-linecap:butt;stroke-linejoin:miter;stroke-miterlimit:4;stroke-dasharray:none;stroke-opacity:1"
           d="m -86.703887,247.18599 c 3.45996,0.0299 6.755896,0.98712 5.356879,3.50714 -1.399017,2.52001 -4.000819,5.53673 -5.474471,5.53515 -1.473652,-0.002 -3.635275,-2.82243 -5.285504,-5.51778 -1.650229,-2.69535 1.943136,-3.55445 5.403096,-3.52454 z"
           id="path875"
           inkscape:connector-curvature="0"
           sodipodi:nodetypes="czzzzc" />
        <path
           sodipodi:nodetypes="ccccc"
           inkscape:connector-curvature="0"
           id="path877"
           d="m -74.123968,251.64074 -5.312505,7.17881 -1.999584,-1.38546 5.31097,-7.12206 z"
           style="fill:none;stroke:#000000;stroke-width:1.28533447;stroke-linecap:butt;stroke-linejoin:miter;stroke-miterlimit:4;stroke-dasharray:none;stroke-opacity:1" />
      </g>
      <g
         transform="rotate(-144,-87.003833,266.8093)"
         id="g903">
        <path
           sodipodi:nodetypes="czzzzc"
           inkscape:connector-curvature="0"
           id="path899"
           d="m -86.703887,247.18599 c 3.45996,0.0299 6.755896,0.98712 5.356879,3.50714 -1.399017,2.52001 -4.000819,5.53673 -5.474471,5.53515 -1.473652,-0.002 -3.635275,-2.82243 -5.285504,-5.51778 -1.650229,-2.69535 1.943136,-3.55445 5.403096,-3.52454 z"
           style="fill:none;stroke:#000000;stroke-width:1.28533447;stroke-linecap:butt;stroke-linejoin:miter;stroke-miterlimit:4;stroke-dasharray:none;stroke-opacity:1" />
        <path
           style="fill:none;stroke:#000000;stroke-width:1.28533447;stroke-linecap:butt;stroke-linejoin:miter;stroke-miterlimit:4;stroke-dasharray:none;stroke-opacity:1"
           d="m -74.123968,251.64074 -5.312505,7.17881 -1.999584,-1.38546 5.31097,-7.12206 z"
           id="path901"
           inkscape:connector-curvature="0"
           sodipodi:nodetypes="ccccc" />
      </g>
      <g
         id="g909"
         transform="rotate(-72,-87.440422,267.20278)">
        <path
           style="fill:none;stroke:#000000;stroke-width:1.28533447;stroke-linecap:butt;stroke-linejoin:miter;stroke-miterlimit:4;stroke-dasharray:none;stroke-opacity:1"
           d="m -86.703887,247.18599 c 3.45996,0.0299 6.755896,0.98712 5.356879,3.50714 -1.399017,2.52001 -4.000819,5.53673 -5.474471,5.53515 -1.473652,-0.002 -3.635275,-2.82243 -5.285504,-5.51778 -1.650229,-2.69535 1.943136,-3.55445 5.403096,-3.52454 z"
           id="path905"
           inkscape:connector-curvature="0"
           sodipodi:nodetypes="czzzzc" />
        <path
           sodipodi:nodetypes="ccccc"
           inkscape:connector-curvature="0"
           id="path907"
           d="m -74.123968,251.64074 -5.312505,7.17881 -1.999584,-1.38546 5.31097,-7.12206 z"
           style="fill:none;stroke:#000000;stroke-width:1.28533447;stroke-linecap:butt;stroke-linejoin:miter;stroke-miterlimit:4;stroke-dasharray:none;stroke-opacity:1" />
      </g>
    </g>
  </g>
</svg>
