<?xml version="1.0" encoding="UTF-8" standalone="no"?>
<svg
   xmlns:dc="http://purl.org/dc/elements/1.1/"
   xmlns:cc="http://creativecommons.org/ns#"
   xmlns:rdf="http://www.w3.org/1999/02/22-rdf-syntax-ns#"
   xmlns:svg="http://www.w3.org/2000/svg"
   xmlns="http://www.w3.org/2000/svg"
   xmlns:sodipodi="http://sodipodi.sourceforge.net/DTD/sodipodi-0.dtd"
   xmlns:inkscape="http://www.inkscape.org/namespaces/inkscape"
   width="83.000061mm"
   height="82.999939mm"
   viewBox="0 0 83.000061 82.999939"
   version="1.1"
   id="svg8"
   inkscape:version="1.0.2 (e86c870879, 2021-01-15)"
   sodipodi:docname="gear80c_24T.svg">
  <defs
     id="defs2">
    <inkscape:perspective
       sodipodi:type="inkscape:persp3d"
       inkscape:vp_x="0 : 148.49999 : 1"
       inkscape:vp_y="0 : 999.99996 : 0"
       inkscape:vp_z="210 : 148.49999 : 1"
       inkscape:persp3d-origin="105.00001 : 98.999996 : 1"
       id="perspective39699" />
  </defs>
  <sodipodi:namedview
     id="base"
     pagecolor="#ffffff"
     bordercolor="#666666"
     borderopacity="1.0"
     inkscape:pageopacity="0.0"
     inkscape:pageshadow="2"
     inkscape:zoom="1.3403633"
     inkscape:cx="-0.95090448"
     inkscape:cy="250.01427"
     inkscape:document-units="mm"
     inkscape:current-layer="layer1"
     showgrid="true"
     inkscape:window-width="3840"
     inkscape:window-height="1516"
     inkscape:window-x="0"
     inkscape:window-y="27"
     inkscape:window-maximized="1"
     gridtolerance="1"
     objecttolerance="1"
     guidetolerance="1"
     fit-margin-top="0"
     fit-margin-left="0"
     fit-margin-right="0"
     fit-margin-bottom="0"
     inkscape:document-rotation="0">
    <inkscape:grid
       type="xygrid"
       id="grid815"
       units="mm"
       spacingx="2"
       spacingy="2"
       originx="41.5"
       originy="41.499995" />
  </sodipodi:namedview>
  <metadata
     id="metadata5">
    <rdf:RDF>
      <cc:Work
         rdf:about="">
        <dc:format>image/svg+xml</dc:format>
        <dc:type
           rdf:resource="http://purl.org/dc/dcmitype/StillImage" />
        <dc:title></dc:title>
      </cc:Work>
    </rdf:RDF>
  </metadata>
  <g
     inkscape:label="レイヤー 1"
     inkscape:groupmode="layer"
     id="layer1"
     transform="translate(41.5,-255.50005)">
    <g
       id="g1766"
       transform="matrix(1,0,0,0.99991491,-67.671596,41.824654)"
       style="stroke-width:1.00004256">
      <path
         inkscape:connector-curvature="0"
         id="path44708"
         d="m 67.671624,214.40291 a 40.797653,40.797671 0 0 0 -1.240206,0.0441 c -0.391616,1.79689 -0.757809,3.46617 -1.088167,4.95356 a 35.882273,35.88229 0 0 0 -2.883093,0.3316 c -0.637893,-1.39232 -1.351148,-2.96001 -2.116135,-4.64742 a 40.797653,40.797671 0 0 0 -4.417528,1.08143 c 0.08738,1.84938 0.166443,3.56789 0.232473,5.09574 a 35.882273,35.88229 0 0 0 -2.695245,1.03472 c -0.973616,-1.17611 -2.064868,-2.50151 -3.237512,-3.92974 a 40.797653,40.797671 0 0 0 -4.004471,2.16283 c 0.561473,1.7588 1.081,3.39411 1.539622,4.85082 a 35.882273,35.88229 0 0 0 -2.36314,1.69011 c -1.23657,-0.87846 -2.619663,-1.86587 -4.107216,-2.93135 a 40.797653,40.797671 0 0 0 -3.299264,3.14308 c 0.993823,1.54775 1.914573,2.9866 2.731571,4.27015 a 35.882273,35.88229 0 0 0 -1.806345,2.25625 c -1.440044,-0.53516 -3.059929,-1.14162 -4.801004,-1.7965 a 40.797653,40.797671 0 0 0 -2.367292,3.87735 c 1.37495,1.25088 2.651947,2.4158 3.783412,3.45338 A 35.882273,35.88229 0 0 0 34.3474,241.9786 c -1.515182,-0.14289 -3.216214,-0.30731 -5.04749,-0.48727 a 40.797653,40.797671 0 0 0 -1.297289,4.36823 c 1.627862,0.84003 3.138625,1.62279 4.484986,2.32422 a 35.882273,35.88229 0 0 0 -0.433813,2.87168 c -1.504408,0.25484 -3.194747,0.53724 -5.014279,0.83805 a 40.797653,40.797671 0 0 0 -0.165534,3.30705 40.797653,40.797671 0 0 0 0.04411,1.24021 c 1.797085,0.39166 3.466542,0.75789 4.954084,1.08817 a 35.882273,35.88229 0 0 0 0.331588,2.88256 c -1.39248,0.63803 -2.960294,1.35156 -4.647925,2.11666 a 40.797653,40.797671 0 0 0 1.081419,4.41752 c 1.849399,-0.0874 3.568321,-0.16643 5.096269,-0.23247 a 35.882273,35.88229 0 0 0 1.034198,2.69526 c -1.176165,0.97357 -2.501548,2.06488 -3.929747,3.2375 a 40.797653,40.797671 0 0 0 2.16336,4.00448 c 1.758862,-0.5615 3.39416,-1.08091 4.85082,-1.53962 a 35.882273,35.88229 0 0 0 1.689589,2.36314 c -0.878435,1.23663 -1.865907,2.61968 -2.931353,4.10722 a 40.797653,40.797671 0 0 0 3.14307,3.29925 c 1.547761,-0.99382 2.986607,-1.91458 4.270155,-2.73157 a 35.882273,35.88229 0 0 0 2.256762,1.80688 c -0.535028,1.43993 -1.141689,3.05959 -1.796485,4.80047 a 40.797653,40.797671 0 0 0 3.876817,2.3673 c 1.250923,-1.37499 2.416199,-2.65193 3.4539,-3.7834 a 35.882273,35.88229 0 0 0 2.635571,1.18466 c -0.142886,1.51533 -0.307289,3.21656 -0.48726,5.04801 a 40.797653,40.797671 0 0 0 4.367709,1.29678 c 0.840113,-1.62803 1.622736,-3.13906 2.324223,-4.4855 a 35.882273,35.88229 0 0 0 2.872196,0.43434 c 0.254928,1.50438 0.537234,3.19473 0.838047,5.01427 a 40.797653,40.797671 0 0 0 3.306528,0.16552 40.797653,40.797671 0 0 0 1.240208,-0.0441 C 69.303489,294.15703 69.669631,292.48755 70,291 a 35.882273,35.88229 0 0 0 2.882574,-0.33156 c 0.63793,1.39247 1.351565,2.96031 2.116654,4.64791 a 40.797653,40.797671 0 0 0 4.418046,-1.08142 c -0.08738,-1.84945 -0.166348,-3.56833 -0.232473,-5.09626 a 35.882273,35.88229 0 0 0 2.694727,-1.0342 c 0.973586,1.17615 2.064905,2.50156 3.237512,3.92974 a 40.797653,40.797671 0 0 0 4.004989,-2.16387 c -0.561442,-1.75869 -1.08091,-3.3937 -1.539621,-4.85031 a 35.882273,35.88229 0 0 0 2.36366,-1.68958 c 1.236512,0.87844 2.619317,1.866 4.106696,2.93136 a 40.797653,40.797671 0 0 0 3.299264,-3.1436 c -0.993682,-1.54754 -1.914561,-2.9863 -2.731571,-4.26965 a 35.882273,35.88229 0 0 0 1.806864,-2.25674 c 1.440122,0.535 3.05998,1.14162 4.801009,1.79648 a 40.797653,40.797671 0 0 0 2.36677,-3.87629 c -1.37522,-1.25114 -2.6523,-2.41608 -3.783932,-3.4539 a 35.882273,35.88229 0 0 0 1.184682,-2.6361 c 1.51546,0.14288 3.21692,0.30726 5.04853,0.48726 a 40.797653,40.797671 0 0 0 1.29625,-4.36772 c -1.62778,-0.83998 -3.13867,-1.62219 -4.48499,-2.32371 a 35.882273,35.88229 0 0 0 0.43382,-2.87271 c 1.50455,-0.25484 3.19514,-0.53721 5.01479,-0.83805 a 40.797653,40.797671 0 0 0 0.16502,-3.30653 40.797653,40.797671 0 0 0 -0.0441,-1.24073 c -1.79686,-0.39161 -3.46613,-0.7579 -4.95356,-1.08817 a 35.882273,35.88229 0 0 0 -0.33159,-2.88309 c 1.39235,-0.63796 2.96002,-1.35115 4.6474,-2.11613 A 40.797653,40.797671 0 0 0 106.706,243.4549 c -1.8492,0.0874 -3.56792,0.16645 -5.09575,0.23247 a 35.882273,35.88229 0 0 0 -1.0342,-2.69525 c 1.17608,-0.97342 2.50127,-2.06457 3.92922,-3.23699 a 40.797653,40.797671 0 0 0 -2.16335,-4.00499 c -1.75868,0.56144 -3.393747,1.08092 -4.850304,1.53962 a 35.882273,35.88229 0 0 0 -1.690109,-2.36314 c 0.878434,-1.23662 1.865906,-2.61969 2.931352,-4.10722 a 40.797653,40.797671 0 0 0 -3.14307,-3.29926 c -1.547768,0.99384 -2.986607,1.91457 -4.270154,2.73157 a 35.882273,35.88229 0 0 0 -2.256244,-1.80687 c 0.535121,-1.43995 1.141687,-3.05959 1.796486,-4.80049 a 40.797653,40.797671 0 0 0 -3.877336,-2.36729 c -1.250878,1.37496 -2.4158,2.65195 -3.453382,3.78341 a 35.882273,35.88229 0 0 0 -2.63661,-1.18416 c 0.142803,-1.51544 0.307785,-3.21684 0.487781,-5.04853 a 40.797653,40.797671 0 0 0 -4.368228,-1.29625 c -0.840015,1.62785 -1.62234,3.13869 -2.323705,4.48499 A 35.882273,35.88229 0 0 0 71.8162,219.5827 c -0.254855,-1.50442 -0.536694,-3.19463 -0.837528,-5.01428 a 40.797653,40.797671 0 0 0 -3.307049,-0.16553 z"
         style="opacity:1;fill:none;fill-opacity:1;stroke:#030000;stroke-width:1.40463614;stroke-miterlimit:4;stroke-dasharray:none;stroke-opacity:1" />
      <g
         id="g1759"
         style="stroke-width:1.00004256">
        <path
           sodipodi:nodetypes="zzzszzzz"
           inkscape:connector-curvature="0"
           id="path45195"
           d="m 65.510425,224.53183 c 4.361606,-0.353 9.608806,1.199 11.967125,2.5995 2.358319,1.4005 4.801649,2.52746 6.954084,5.92554 2.152435,3.39809 0.377989,17.32908 -4.406466,17.24377 -5.636412,-0.1005 -4.183084,-9.15149 -14.176084,-11.37075 -9.993,-2.21927 -19.638617,3.04362 -20.775697,0.75976 -1.13708,-2.28385 6.5167,-8.96122 8.284564,-10.33471 1.767865,-1.37349 7.790868,-4.47011 12.152474,-4.82311 z"
           style="fill:none;stroke:#000000;stroke-width:1.28538918;stroke-linecap:butt;stroke-linejoin:miter;stroke-miterlimit:4;stroke-dasharray:none;stroke-opacity:1" />
        <path
           style="fill:none;stroke:#000000;stroke-width:1.28538918;stroke-linecap:butt;stroke-linejoin:miter;stroke-miterlimit:4;stroke-dasharray:none;stroke-opacity:1"
           d="m 42.384991,271.72917 c -2.48651,-3.60076 -3.766039,-8.92097 -3.73233,-11.66358 0.03371,-2.74262 -0.21198,-5.42208 1.654626,-8.98519 1.866615,-3.5631 14.818429,-8.99188 17.136776,-4.80577 2.731171,4.93153 -5.833881,8.1984 -2.759316,17.96222 3.074556,9.76383 12.455161,15.48574 11.04582,17.61241 -1.409332,2.12666 -11.018994,-1.16302 -13.092404,-2.00729 -2.073409,-0.84427 -7.766662,-4.51204 -10.253172,-8.1128 z"
           id="path48965"
           inkscape:connector-curvature="0"
           sodipodi:nodetypes="zzzszzzz" />
        <path
           sodipodi:nodetypes="zzzszzzz"
           inkscape:connector-curvature="0"
           id="path48967"
           d="m 95.73408,267.97221 c -1.875095,3.95376 -5.842767,7.72197 -8.234792,9.06408 -2.392033,1.34212 -4.589669,2.89462 -8.608715,3.05965 -4.019043,0.16501 -15.196411,-8.3372 -12.730307,-12.438 2.905244,-4.83103 10.016963,0.95309 16.935397,-6.59147 6.918446,-7.54456 7.183463,-18.52936 9.729884,-18.37217 2.546408,0.15719 4.502292,10.12424 4.807838,12.342 0.305545,2.21776 -0.02421,8.98215 -1.899305,12.93591 z"
           style="fill:none;stroke:#000000;stroke-width:1.28538918;stroke-linecap:butt;stroke-linejoin:miter;stroke-miterlimit:4;stroke-dasharray:none;stroke-opacity:1" />
      </g>
    </g>
    <g
       id="g976"
       style="stroke:#040000;stroke-opacity:1"
       transform="translate(2.649914,6.5377287)">
      <g
         id="g962"
         style="stroke:#040000;stroke-opacity:1">
        <path
           style="opacity:1;fill:none;fill-opacity:1;stroke:#040000;stroke-width:1.5;stroke-linecap:round;stroke-miterlimit:4;stroke-dasharray:none;stroke-dashoffset:0;stroke-opacity:1"
           id="path853"
           d="m -1.3467493,288.87559 a 2.0999999,2.0999999 0 0 1 0.75014591,1.60869 2.0999999,2.0999999 0 0 1 -0.75014601,1.6087"
           sodipodi:type="arc"
           sodipodi:open="true"
           sodipodi:start="5.4105207"
           sodipodi:end="0.87266463"
           sodipodi:ry="2.0999999"
           sodipodi:rx="2.0999999"
           sodipodi:cy="290.48428"
           sodipodi:cx="-2.6966033" />
        <path
           style="fill:none;stroke:#040000;stroke-width:1.5;stroke-linecap:butt;stroke-linejoin:miter;stroke-miterlimit:4;stroke-dasharray:none;stroke-opacity:1"
           d="m -1.1961116,288.87909 -2.966088,-0.0174"
           id="path877"
           inkscape:connector-curvature="0"
           sodipodi:nodetypes="cc" />
      </g>
      <g
         transform="rotate(-180,-2.6491772,290.47207)"
         id="g968"
         style="stroke:#040000;stroke-opacity:1">
        <path
           sodipodi:cx="-2.6966033"
           sodipodi:cy="290.48428"
           sodipodi:rx="2.0999999"
           sodipodi:ry="2.0999999"
           sodipodi:end="0.87266463"
           sodipodi:start="5.4105207"
           sodipodi:open="true"
           sodipodi:type="arc"
           d="m -1.3467493,288.87559 a 2.0999999,2.0999999 0 0 1 0.75014591,1.60869 2.0999999,2.0999999 0 0 1 -0.75014601,1.6087"
           id="path964"
           style="opacity:1;fill:none;fill-opacity:1;stroke:#040000;stroke-width:1.5;stroke-linecap:round;stroke-miterlimit:4;stroke-dasharray:none;stroke-dashoffset:0;stroke-opacity:1" />
        <path
           sodipodi:nodetypes="cc"
           inkscape:connector-curvature="0"
           id="path966"
           d="m -1.1961116,288.87909 -2.966088,-0.0174"
           style="fill:none;stroke:#040000;stroke-width:1.5;stroke-linecap:butt;stroke-linejoin:miter;stroke-miterlimit:4;stroke-dasharray:none;stroke-opacity:1" />
      </g>
    </g>
  </g>
</svg>
