<?xml version="1.0" encoding="UTF-8" standalone="no"?>
<!-- Created with Inkscape (http://www.inkscape.org/) -->

<svg
   xmlns:dc="http://purl.org/dc/elements/1.1/"
   xmlns:cc="http://creativecommons.org/ns#"
   xmlns:rdf="http://www.w3.org/1999/02/22-rdf-syntax-ns#"
   xmlns:svg="http://www.w3.org/2000/svg"
   xmlns="http://www.w3.org/2000/svg"
   xmlns:sodipodi="http://sodipodi.sourceforge.net/DTD/sodipodi-0.dtd"
   xmlns:inkscape="http://www.inkscape.org/namespaces/inkscape"
   width="63.999973mm"
   height="63.99955mm"
   viewBox="0 0 63.999972 63.99955"
   version="1.1"
   id="svg8"
   inkscape:version="0.92.4 (5da689c313, 2019-01-14)"
   sodipodi:docname="Tyer5d.svg">
  <defs
     id="defs2">
    <inkscape:perspective
       sodipodi:type="inkscape:persp3d"
       inkscape:vp_x="0 : 148.5 : 1"
       inkscape:vp_y="0 : 999.99998 : 0"
       inkscape:vp_z="210.00001 : 148.5 : 1"
       inkscape:persp3d-origin="105 : 98.999998 : 1"
       id="perspective39699" />
  </defs>
  <sodipodi:namedview
     id="base"
     pagecolor="#ffffff"
     bordercolor="#666666"
     borderopacity="1.0"
     inkscape:pageopacity="0.0"
     inkscape:pageshadow="2"
     inkscape:zoom="2.14"
     inkscape:cx="195.06485"
     inkscape:cy="95.612378"
     inkscape:document-units="mm"
     inkscape:current-layer="layer1"
     showgrid="true"
     inkscape:window-width="1920"
     inkscape:window-height="991"
     inkscape:window-x="0"
     inkscape:window-y="30"
     inkscape:window-maximized="1"
     gridtolerance="1"
     objecttolerance="1"
     guidetolerance="1"
     fit-margin-top="0"
     fit-margin-left="0"
     fit-margin-right="0"
     fit-margin-bottom="0">
    <inkscape:grid
       type="xygrid"
       id="grid815"
       units="mm"
       spacingx="2"
       spacingy="2"
       originx="32.000002"
       originy="2.3723953" />
  </sodipodi:namedview>
  <metadata
     id="metadata5">
    <rdf:RDF>
      <cc:Work
         rdf:about="">
        <dc:format>image/svg+xml</dc:format>
        <dc:type
           rdf:resource="http://purl.org/dc/dcmitype/StillImage" />
        <dc:title></dc:title>
      </cc:Work>
    </rdf:RDF>
  </metadata>
  <g
     inkscape:label="レイヤー 1"
     inkscape:groupmode="layer"
     id="layer1"
     transform="translate(118.78079,-235.37286)">
    <path
       style="opacity:1;fill:none;fill-opacity:1;stroke:#000000;stroke-width:1.5;stroke-miterlimit:4;stroke-dasharray:none;stroke-opacity:1"
       d="m -86.980436,236.13198 a 31.259404,31.255462 0 0 0 -5.662402,0.56089 c -0.0205,0.34776 -0.03834,0.68644 -0.0548,1.01839 a 30.258956,30.255165 0 0 0 -1.695825,0.42392 c -0.192532,-0.28694 -0.390672,-0.5795 -0.595607,-0.87883 a 31.259404,31.255462 0 0 0 -5.33306,1.99648 c 0.0705,0.34428 0.14112,0.67934 0.21146,1.00703 a 30.258956,30.255165 0 0 0 -1.56917,0.80955 c -0.25741,-0.22465 -0.52106,-0.4524 -0.79311,-0.68549 a 31.259404,31.255462 0 0 0 -4.6387,3.27336 c 0.15873,0.31818 0.31472,0.62692 0.46894,0.92898 a 30.258956,30.255165 0 0 0 -1.31685,1.22569 c -0.31353,-0.15334 -0.63388,-0.30892 -0.96424,-0.46681 a 31.259404,31.255462 0 0 0 -3.59949,4.36828 c 0.23172,0.26208 0.45838,0.51525 0.68195,0.76354 a 30.258956,30.255165 0 0 0 -0.96993,1.55396 c -0.33827,-0.0658 -0.68306,-0.1317 -1.03818,-0.19747 a 31.259404,31.255462 0 0 0 -2.36278,5.12871 c 0.29445,0.19519 0.58159,0.38326 0.86446,0.5671 a 30.258956,30.255165 0 0 0 -0.58992,1.78453 c -0.34036,0.0243 -0.68586,0.05 -1.0418,0.0786 a 31.259404,31.255462 0 0 0 -0.94769,5.53761 c 0.3306,0.11092 0.65182,0.21669 0.96889,0.32 a 30.258956,30.255165 0 0 0 -0.0683,1.91739 c -0.32716,0.11366 -0.65902,0.23013 -1.00043,0.35205 a 31.259404,31.255462 0 0 0 0.54132,5.57328 c 0.3484,0.0214 0.68616,0.0403 1.01956,0.0579 a 30.258956,30.255165 0 0 0 0.45343,1.87345 c -0.28742,0.19524 -0.57878,0.39426 -0.8779,0.60121 a 31.259404,31.255462 0 0 0 1.96054,5.24038 c 0.34475,-0.0702 0.67863,-0.14031 1.00767,-0.21039 a 30.258956,30.255165 0 0 0 0.89496,1.7194 c -0.22431,0.25992 -0.45069,0.5238 -0.68298,0.79766 a 31.259404,31.255462 0 0 0 3.22672,4.55437 c 0.31821,-0.15894 0.62573,-0.3148 0.92857,-0.4694 a 30.258956,30.255165 0 0 0 1.3277,1.42525 c -0.1525,0.31544 -0.30644,0.63617 -0.46325,0.96773 a 31.259404,31.255462 0 0 0 4.31815,3.52098 c 0.2618,-0.23212 0.51409,-0.45865 0.76261,-0.68289 a 30.258956,30.255165 0 0 0 1.65394,1.01737 c -0.065,0.33958 -0.13039,0.68425 -0.19543,1.04011 a 31.259404,31.255462 0 0 0 5.077666,2.30408 c 0.194582,-0.29465 0.381474,-0.58151 0.565103,-0.86488 a 30.258956,30.255165 0 0 0 1.854033,0.59243 c 0.02455,0.34076 0.04992,0.68568 0.07859,1.04166 a 31.259404,31.255462 0 0 0 5.4892,0.92278 c 0.111805,-0.33453 0.218416,-0.65926 0.32262,-0.98015 a 30.258956,30.255165 0 0 0 1.955887,0.0693 c 0.111728,0.32285 0.22575,0.64931 0.345368,0.98584 a 31.259404,31.255462 0 0 0 5.537282,-0.55264 c 0.02138,-0.34815 0.04024,-0.68559 0.05791,-1.01892 a 30.258956,30.255165 0 0 0 1.887639,-0.47146 c 0.194397,0.28776 0.392176,0.57896 0.598191,0.87832 a 31.259404,31.255462 0 0 0 5.211561,-1.97839 c -0.06986,-0.34488 -0.139731,-0.67882 -0.209393,-1.00807 a 30.258956,30.255165 0 0 0 1.716508,-0.90778 c 0.258908,0.22474 0.521893,0.45174 0.794658,0.68446 a 31.259404,31.255462 0 0 0 4.535299,-3.24235 c -0.158316,-0.31884 -0.313364,-0.62706 -0.467386,-0.93051 a 30.258956,30.255165 0 0 0 1.42594,-1.32806 c 0.315105,0.15321 0.63509,0.30772 0.966311,0.46526 a 31.259404,31.255462 0 0 0 3.503327,-4.33518 c -0.231447,-0.26256 -0.457327,-0.51588 -0.680916,-0.76509 a 30.258956,30.255165 0 0 0 1.005602,-1.6584 c 0.339296,0.0654 0.683593,0.13052 1.039212,0.19592 a 31.259404,31.255462 0 0 0 2.287812,-5.10286 c -0.294571,-0.19562 -0.581234,-0.38365 -0.864457,-0.56814 a 30.258956,30.255165 0 0 0 0.575961,-1.84397 c 0.340667,-0.0246 0.68575,-0.0503 1.041794,-0.0791 a 31.259404,31.255462 0 0 0 0.908405,-5.5216 c -0.337289,-0.11325 -0.665272,-0.22137 -0.988543,-0.32671 a 30.258956,30.255165 0 0 0 0.06463,-1.82485 30.258956,30.255165 0 0 0 -0.0047,-0.0971 c 0.321676,-0.11175 0.647396,-0.2261 0.982853,-0.34584 a 31.259404,31.255462 0 0 0 -0.573375,-5.58156 c -0.350804,-0.0214 -0.691359,-0.0404 -1.026801,-0.0579 a 30.258956,30.255165 0 0 0 -0.465836,-1.82485 c 0.287266,-0.19478 0.578763,-0.394 0.877898,-0.60071 a 31.259404,31.255462 0 0 0 -2.028253,-5.25898 c -0.34466,0.0706 -0.679172,0.14101 -1.007674,0.21143 a 30.258956,30.255165 0 0 0 -0.87118,-1.62168 c 0.224158,-0.25889 0.451633,-0.52286 0.684017,-0.79612 a 31.259404,31.255462 0 0 0 -3.311504,-4.58436 c -0.317497,0.15926 -0.625531,0.3157 -0.927015,0.47044 a 30.258956,30.255165 0 0 0 -1.232575,-1.32289 c 0.152763,-0.31422 0.307033,-0.63565 0.464283,-0.96671 a 31.259404,31.255462 0 0 0 -4.412247,-3.55303 c -0.261073,0.23245 -0.51394,0.45982 -0.761053,0.68393 a 30.258956,30.255165 0 0 0 -1.518489,-0.91295 c 0.06575,-0.33804 0.131779,-0.6833 0.197504,-1.03855 a 31.259404,31.255462 0 0 0 -5.191917,-2.32992 c -0.193601,0.29471 -0.380622,0.58267 -0.562515,0.86538 a 30.258956,30.255165 0 0 0 -1.668941,-0.5335 c -0.02339,-0.33937 -0.04873,-0.68552 -0.07652,-1.04114 a 31.259404,31.255462 0 0 0 -5.610702,-0.93983 c -0.111725,0.33707 -0.218635,0.66615 -0.322101,0.98842 a 30.258956,30.255165 0 0 0 -1.752698,-0.0615 c -0.111151,-0.32457 -0.225652,-0.65573 -0.345371,-0.99514 z"
       id="circle6352"
       inkscape:connector-curvature="0" />
    <g
       id="g1096">
      <g
         id="g1002">
        <circle
           style="opacity:1;fill:none;fill-opacity:1;stroke:#000000;stroke-width:1.49999988;stroke-miterlimit:4;stroke-dasharray:none;stroke-opacity:1"
           id="circle1014-3"
           cx="-86.780785"
           cy="267.37241"
           r="1.75" />
        <circle
           r="0.84999996"
           cy="259.92218"
           cx="-86.752747"
           id="circle843"
           style="opacity:1;fill:none;fill-opacity:1;stroke:#000000;stroke-width:1.5;stroke-miterlimit:4;stroke-dasharray:none;stroke-opacity:1" />
        <circle
           style="opacity:1;fill:none;fill-opacity:1;stroke:#000000;stroke-width:1.5;stroke-miterlimit:4;stroke-dasharray:none;stroke-opacity:1"
           id="circle915"
           cx="274.98773"
           cy="-66.051262"
           r="0.84999996"
           transform="rotate(120)" />
        <circle
           r="0.84999996"
           cy="-216.31483"
           cx="-188.17001"
           id="circle930"
           style="opacity:1;fill:none;fill-opacity:1;stroke:#000000;stroke-width:1.5;stroke-miterlimit:4;stroke-dasharray:none;stroke-opacity:1"
           transform="rotate(-120)" />
      </g>
      <g
         id="g1006">
        <path
           style="fill:none;stroke:#000000;stroke-width:1.28533447;stroke-linecap:butt;stroke-linejoin:miter;stroke-miterlimit:4;stroke-dasharray:none;stroke-opacity:1"
           d="m -86.703887,247.18599 c 3.45996,0.0299 6.755896,0.98712 5.356879,3.50714 -1.399017,2.52001 -4.000819,5.53673 -5.474471,5.53515 -1.473652,-0.002 -3.635275,-2.82243 -5.285504,-5.51778 -1.650229,-2.69535 1.943136,-3.55445 5.403096,-3.52454 z"
           id="path938"
           inkscape:connector-curvature="0"
           sodipodi:nodetypes="czzzzc" />
        <path
           sodipodi:nodetypes="ccccc"
           inkscape:connector-curvature="0"
           id="path856"
           d="m -73.468283,251.72816 -5.312505,7.17881 -1.999584,-1.38546 5.31097,-7.12206 z"
           style="fill:none;stroke:#000000;stroke-width:1.28533447;stroke-linecap:butt;stroke-linejoin:miter;stroke-miterlimit:4;stroke-dasharray:none;stroke-opacity:1" />
      </g>
      <g
         transform="rotate(72,-86.810712,267.77514)"
         id="g1023">
        <path
           sodipodi:nodetypes="czzzzc"
           inkscape:connector-curvature="0"
           id="path1019"
           d="m -86.703887,247.18599 c 3.45996,0.0299 6.755896,0.98712 5.356879,3.50714 -1.399017,2.52001 -4.000819,5.53673 -5.474471,5.53515 -1.473652,-0.002 -3.635275,-2.82243 -5.285504,-5.51778 -1.650229,-2.69535 1.943136,-3.55445 5.403096,-3.52454 z"
           style="fill:none;stroke:#000000;stroke-width:1.28533447;stroke-linecap:butt;stroke-linejoin:miter;stroke-miterlimit:4;stroke-dasharray:none;stroke-opacity:1" />
        <path
           style="fill:none;stroke:#000000;stroke-width:1.28533447;stroke-linecap:butt;stroke-linejoin:miter;stroke-miterlimit:4;stroke-dasharray:none;stroke-opacity:1"
           d="m -73.468283,251.72816 -5.312505,7.17881 -1.999584,-1.38546 5.31097,-7.12206 z"
           id="path1021"
           inkscape:connector-curvature="0"
           sodipodi:nodetypes="ccccc" />
      </g>
      <g
         id="g1062"
         transform="rotate(144,-86.868348,267.47935)">
        <path
           style="fill:none;stroke:#000000;stroke-width:1.28533447;stroke-linecap:butt;stroke-linejoin:miter;stroke-miterlimit:4;stroke-dasharray:none;stroke-opacity:1"
           d="m -86.703887,247.18599 c 3.45996,0.0299 6.755896,0.98712 5.356879,3.50714 -1.399017,2.52001 -4.000819,5.53673 -5.474471,5.53515 -1.473652,-0.002 -3.635275,-2.82243 -5.285504,-5.51778 -1.650229,-2.69535 1.943136,-3.55445 5.403096,-3.52454 z"
           id="path1058"
           inkscape:connector-curvature="0"
           sodipodi:nodetypes="czzzzc" />
        <path
           sodipodi:nodetypes="ccccc"
           inkscape:connector-curvature="0"
           id="path1060"
           d="m -73.468283,251.72816 -5.312505,7.17881 -1.999584,-1.38546 5.31097,-7.12206 z"
           style="fill:none;stroke:#000000;stroke-width:1.28533447;stroke-linecap:butt;stroke-linejoin:miter;stroke-miterlimit:4;stroke-dasharray:none;stroke-opacity:1" />
      </g>
      <g
         transform="rotate(-144,-86.638244,267.33393)"
         id="g1068">
        <path
           sodipodi:nodetypes="czzzzc"
           inkscape:connector-curvature="0"
           id="path1064"
           d="m -86.703887,247.18599 c 3.45996,0.0299 6.755896,0.98712 5.356879,3.50714 -1.399017,2.52001 -4.000819,5.53673 -5.474471,5.53515 -1.473652,-0.002 -3.635275,-2.82243 -5.285504,-5.51778 -1.650229,-2.69535 1.943136,-3.55445 5.403096,-3.52454 z"
           style="fill:none;stroke:#000000;stroke-width:1.28533447;stroke-linecap:butt;stroke-linejoin:miter;stroke-miterlimit:4;stroke-dasharray:none;stroke-opacity:1" />
        <path
           style="fill:none;stroke:#000000;stroke-width:1.28533447;stroke-linecap:butt;stroke-linejoin:miter;stroke-miterlimit:4;stroke-dasharray:none;stroke-opacity:1"
           d="m -73.468283,251.72816 -5.312505,7.17881 -1.999584,-1.38546 5.31097,-7.12206 z"
           id="path1066"
           inkscape:connector-curvature="0"
           sodipodi:nodetypes="ccccc" />
      </g>
      <g
         id="g1074"
         transform="rotate(-72,-86.85661,267.45506)">
        <path
           style="fill:none;stroke:#000000;stroke-width:1.28533447;stroke-linecap:butt;stroke-linejoin:miter;stroke-miterlimit:4;stroke-dasharray:none;stroke-opacity:1"
           d="m -86.703887,247.18599 c 3.45996,0.0299 6.755896,0.98712 5.356879,3.50714 -1.399017,2.52001 -4.000819,5.53673 -5.474471,5.53515 -1.473652,-0.002 -3.635275,-2.82243 -5.285504,-5.51778 -1.650229,-2.69535 1.943136,-3.55445 5.403096,-3.52454 z"
           id="path1070"
           inkscape:connector-curvature="0"
           sodipodi:nodetypes="czzzzc" />
        <path
           sodipodi:nodetypes="ccccc"
           inkscape:connector-curvature="0"
           id="path1072"
           d="m -73.468283,251.72816 -5.312505,7.17881 -1.999584,-1.38546 5.31097,-7.12206 z"
           style="fill:none;stroke:#000000;stroke-width:1.28533447;stroke-linecap:butt;stroke-linejoin:miter;stroke-miterlimit:4;stroke-dasharray:none;stroke-opacity:1" />
      </g>
    </g>
  </g>
</svg>
